#!OML:ASF H:\Terrain\Patient Classification 1\Walking\liu\liu.ASF
:FULLY-SPECIFIED
:DEGREES
178
root 9.31536 16.9723 4.56509 6.83753 2.69673 3.37052
lowerback -1.86518 -1.73735 -5.5941
upperback 0.196799 -2.21544 1.91374
thorax 1.5392 -1.16362 5.04617
lowerneck -22.7634 -3.55224 -11.1005
upperneck 21.5451 -4.09661 11.3661
head 11.2364 -1.3672 5.40797
rclavicle -2.28602e-015 7.95139e-015
rhumerus -42.1858 8.3499 -84.3531
rradius 27.1213
rwrist -12.0905
rhand -31.9806 -16.1412
rfingers 7.12502
rthumb -5.22996 -46.0567
lclavicle -2.28602e-015 7.95139e-015
lhumerus -28.6676 -25.1051 94.1617
lradius 35.1491
lwrist 10.194
lhand -16.1925 -27.1326
lfingers 7.12502
lthumb 10.0145 2.60914
rfemur -37.0884 -1.41421 19.2867
rtibia 59.9732
rfoot -15.9755 -8.624
rtoes -17.1629
lfemur -11.0719 1.78446 -28.9036
ltibia 24.3151
lfoot -18.7307 -1.0097
ltoes 1.22962
179
root 9.3121 16.9664 4.73525 7.01198 3.10709 2.85293
lowerback -1.52061 -1.91005 -5.22962
upperback -0.0138545 -2.47662 2.11598
thorax 1.15525 -1.27606 5.0555
lowerneck -22.478 -3.4176 -10.9103
upperneck 21.5481 -3.97222 11.2479
head 11.159 -1.31659 5.34748
rclavicle 3.60794e-014 -1.03368e-014
rhumerus -43.4413 8.52189 -84.4661
rradius 27.4181
rwrist -12.0789
rhand -32.9474 -17.972
rfingers 7.12502
rthumb -6.16343 -47.8623
lclavicle 3.60794e-014 -1.03368e-014
lhumerus -27.8358 -25.5242 93.692
lradius 36.1203
lwrist 10.3745
lhand -15.7152 -27.104
lfingers 7.12502
lthumb 10.4749 2.61504
rfemur -38.039 -0.719 19.8574
rtibia 57.28
rfoot -15.2389 -10.6783
rtoes -18.8745
lfemur -11.0479 1.84932 -28.264
ltibia 25.0897
lfoot -19.4456 -1.01159
ltoes -0.707398
180
root 9.28967 16.9484 4.85857 7.61566 3.42129 1.75642
lowerback -1.13427 -2.05028 -4.46298
upperback -0.373769 -2.69807 2.54887
thorax 0.58092 -1.36093 5.08709
lowerneck -22.2666 -3.28934 -11.078
upperneck 21.435 -3.83304 11.5755
head 11.0693 -1.23285 5.51829
rclavicle 3.57812e-015 -7.15625e-015
rhumerus -44.3902 8.74906 -84.6253
rradius 27.5379
rwrist -12.601
rhand -33.8315 -21.5755
rfingers 7.12502
rthumb -7.01687 -51.4392
lclavicle 3.57812e-015 -7.15625e-015
lhumerus -26.7021 -26.0893 93.1359
lradius 36.9254
lwrist 10.9902
lhand -15.8535 -27.2042
lfingers 7.12502
lthumb 10.3415 2.52154
rfemur -39.7113 0.700705 20.9327
rtibia 54.5325
rfoot -14.1989 -12.7477
rtoes -18.0544
lfemur -11.1152 1.76015 -26.8803
ltibia 24.3218
lfoot -19.0093 -1.08922
ltoes -1.43703
181
root 9.25842 16.9171 4.98335 8.34609 3.93616 0.666814
lowerback -0.840215 -2.23347 -3.83027
upperback -0.720371 -2.95968 3.06635
thorax 0.0865232 -1.47245 5.28224
lowerneck -22.3835 -3.26775 -11.208
upperneck 21.3903 -3.79673 11.7839
head 11.0777 -1.19881 5.62627
rclavicle 3.13086e-014 -2.38542e-015
rhumerus -45.2007 8.82896 -84.3654
rradius 27.5982
rwrist -13.522
rhand -33.9975 -22.5635
rfingers 7.12502
rthumb -7.17717 -52.4218
lclavicle 3.13086e-014 -2.38542e-015
lhumerus -25.2156 -26.7083 92.5058
lradius 37.4038
lwrist 11.3675
lhand -15.659 -27.301
lfingers 7.12502
lthumb 10.5291 2.4153
rfemur -41.3412 2.16829 21.7389
rtibia 51.6342
rfoot -14.5422 -12.6752
rtoes -14.8579
lfemur -11.2163 1.36246 -25.4576
ltibia 23.3271
lfoot -18.4952 -1.07033
ltoes -0.556387
182
root 9.35119 16.9451 5.39863 7.28334 4.39354 3.58064
lowerback -2.25683 -2.65708 -5.90979
upperback 0.241453 -3.41605 2.07759
thorax 1.99033 -1.78421 5.32128
lowerneck -22.5711 -3.23631 -10.951
upperneck 21.4634 -3.75265 11.4989
head 11.1223 -1.18704 5.48403
rclavicle -3.32964e-014 0
rhumerus -45.992 8.54979 -83.9112
rradius 27.6202
rwrist -13.6546
rhand -33.9956 -22.2943
rfingers 7.12502
rthumb -7.17533 -52.1527
lclavicle -3.32964e-014 0
lhumerus -23.9471 -27.4242 91.8854
lradius 38.0272
lwrist 11.8057
lhand -15.7382 -27.3366
lfingers 7.12502
lthumb 10.4527 2.38352
rfemur -39.1429 0.315623 18.1018
rtibia 49.1521
rfoot -16.3983 -9.33186
rtoes -13.9749
lfemur -6.47913 1.23464 -28.9328
ltibia 21.2119
lfoot -19.5388 -1.52479
ltoes 1.32032
183
root 9.36052 16.9451 5.62029 7.32106 5.05566 4.0622
lowerback -2.3562 -2.96833 -6.37273
upperback 0.360388 -3.8085 1.97513
thorax 2.24761 -1.9968 5.44399
lowerneck -22.7931 -3.22092 -10.8368
upperneck 21.5109 -3.73359 11.4294
head 11.1757 -1.17161 5.44494
rclavicle 1.61016e-014 -2.70347e-014
rhumerus -46.6894 8.10552 -83.4963
rradius 27.5905
rwrist -13.3511
rhand -34.034 -21.0303
rfingers 7.12502
rthumb -7.21243 -50.8874
lclavicle 1.61016e-014 -2.70347e-014
lhumerus -22.7252 -28.4115 91.1892
lradius 38.7826
lwrist 12.864
lhand -16.157 -27.2956
lfingers 7.12502
lthumb 10.0487 2.44447
rfemur -39.3791 0.553617 17.1736
rtibia 46.4438
rfoot -17.2781 -9.03118
rtoes -14.5795
lfemur -4.20066 1.258 -29.3264
ltibia 18.5071
lfoot -18.8443 -2.05153
ltoes 1.82408
184
root 9.36678 16.9397 5.83258 7.49559 5.30579 4.49161
lowerback -2.48584 -3.13053 -6.8516
upperback 0.394594 -3.99968 1.90059
thorax 2.41207 -2.10459 5.61568
lowerneck -23.3788 -3.3187 -10.742
upperneck 21.9768 -3.83295 11.2485
head 11.469 -1.21794 5.36848
rclavicle -9.93923e-015 -2.06736e-014
rhumerus -47.5519 7.86986 -83.1948
rradius 27.6605
rwrist -13.3823
rhand -32.5767 -20.3038
rfingers 7.12502
rthumb -5.80556 -50.2042
lclavicle -9.93923e-015 -2.06736e-014
lhumerus -21.4198 -28.9174 90.486
lradius 39.3155
lwrist 13.3328
lhand -16.4242 -27.1639
lfingers 7.12502
lthumb 9.79094 2.58847
rfemur -39.9936 1.22225 16.2248
rtibia 43.8413
rfoot -17.739 -8.91057
rtoes -13.9287
lfemur -1.40893 1.38364 -29.7252
ltibia 14.3027
lfoot -17.281 -2.08513
ltoes 1.75184
185
root 9.37276 16.9286 6.03826 7.89835 5.34008 4.58919
lowerback -2.74874 -3.16894 -6.96904
upperback 0.252001 -4.03254 1.92448
thorax 2.42663 -2.11892 5.69482
lowerneck -23.6098 -3.33013 -10.5261
upperneck 22.322 -3.81534 10.8323
head 11.6266 -1.23935 5.18922
rclavicle -1.31198e-014 -2.38542e-015
rhumerus -48.6783 7.76954 -82.9375
rradius 27.6839
rwrist -13.5939
rhand -31.1948 -20.3455
rfingers 7.12502
rthumb -4.47125 -50.2783
lclavicle -1.31198e-014 -2.38542e-015
lhumerus -20.1811 -29.1912 89.9436
lradius 39.6334
lwrist 13.2087
lhand -16.5094 -27.1626
lfingers 7.12502
lthumb 9.70869 2.5936
rfemur -40.7778 1.98982 15.665
rtibia 40.9431
rfoot -18.1225 -8.62921
rtoes -12.7715
lfemur 0.152137 1.32371 -29.8097
ltibia 11.8114
lfoot -16.4491 -1.77084
ltoes 1.97028
186
root 9.37971 16.9241 6.24735 8.23897 5.56053 4.81996
lowerback -3.0022 -3.2462 -7.18432
upperback 0.18426 -4.11092 1.89704
thorax 2.52414 -2.16197 5.76985
lowerneck -23.0352 -3.2577 -10.7191
upperneck 21.792 -3.70621 10.9963
head 11.3103 -1.19778 5.27622
rclavicle 5.81445e-014 -3.97569e-015
rhumerus -49.5789 7.47226 -82.4811
rradius 27.7955
rwrist -14.1533
rhand -32.6446 -19.0885
rfingers 7.12502
rthumb -5.87107 -48.9872
lclavicle 5.81445e-014 -3.97569e-015
lhumerus -18.8083 -29.6647 89.3307
lradius 39.9138
lwrist 13.6193
lhand -16.1466 -27.3083
lfingers 7.12502
lthumb 10.0587 2.43134
rfemur -41.4113 2.36081 15.0552
rtibia 38.1117
rfoot -18.3743 -8.50863
rtoes -12.4248
lfemur 1.8176 1.38578 -29.9388
ltibia 9.21192
lfoot -15.3423 -1.86061
ltoes 2.89371
187
root 9.38743 16.9092 6.47129 8.3126 5.78709 5.04433
lowerback -3.12388 -3.37118 -7.45533
upperback 0.21809 -4.25719 1.86928
thorax 2.6689 -2.2449 5.87418
lowerneck -22.9346 -3.24733 -10.7477
upperneck 21.612 -3.69433 11.0554
head 11.2243 -1.18915 5.29733
rclavicle -1.04362e-014 2.38542e-015
rhumerus -50.1999 6.73065 -81.6008
rradius 27.8607
rwrist -14.1828
rhand -33.3805 -18.4423
rfingers 7.12502
rthumb -6.58152 -48.3201
lclavicle -1.04362e-014 2.38542e-015
lhumerus -17.6034 -29.5353 88.6932
lradius 40.302
lwrist 13.9904
lhand -16.0705 -27.4531
lfingers 7.12502
lthumb 10.1321 2.28294
rfemur -41.7093 2.71351 14.4364
rtibia 35.4643
rfoot -18.7028 -8.60302
rtoes -13.4557
lfemur 4.04799 1.48553 -30.0632
ltibia 6.37565
lfoot -14.3288 -1.93733
ltoes 3.31026
188
root 9.39398 16.8937 6.70227 8.34614 6.06758 5.05169
lowerback -3.24079 -3.55326 -7.4643
upperback 0.198213 -4.49127 1.86006
thorax 2.75118 -2.36418 5.84441
lowerneck -23.4709 -3.23706 -10.2775
upperneck 22.1762 -3.72029 10.6227
head 11.5221 -1.20378 5.07343
rclavicle 5.397e-014 6.36111e-015
rhumerus -51.0538 6.314 -81.1327
rradius 27.8663
rwrist -13.9257
rhand -32.5201 -18.8341
rfingers 7.12502
rthumb -5.75093 -48.7361
lclavicle 5.397e-014 6.36111e-015
lhumerus -16.6715 -29.0126 88.0873
lradius 40.6803
lwrist 13.695
lhand -16.202 -27.3982
lfingers 7.12502
lthumb 10.0053 2.344
rfemur -42.0025 3.45663 13.8449
rtibia 33.2497
rfoot -19.4866 -8.6419
rtoes -15.4961
lfemur 8.21181 1.55885 -29.9397
ltibia 2.8625e-014
lfoot -11.8761 -1.95057
ltoes 3.50121
189
root 9.39733 16.8813 6.91968 8.6808 6.47733 5.26865
lowerback -3.55419 -3.75236 -7.62001
upperback 0.13984 -4.72675 1.81824
thorax 2.91331 -2.48745 5.85035
lowerneck -23.7262 -3.28131 -10.2055
upperneck 22.4677 -3.77161 10.5004
head 11.6838 -1.23139 5.0193
rclavicle 3.42904e-014 -3.97569e-015
rhumerus -52.0086 6.41897 -81.1748
rradius 28.0077
rwrist -14.8538
rhand -32.6982 -17.5844
rfingers 7.12502
rthumb -5.92282 -47.4817
lclavicle 3.42904e-014 -3.97569e-015
lhumerus -15.6131 -28.6996 87.5291
lradius 41.0164
lwrist 13.4212
lhand -16.0337 -27.1367
lfingers 7.12502
lthumb 10.1677 2.59756
rfemur -42.8364 4.70528 12.6228
rtibia 31.5554
rfoot -20.7715 -8.80717
rtoes -17.2728
lfemur 8.72365 1.42731 -29.96
ltibia -1.27222e-014
lfoot -12.0819 -2.60351
ltoes 5.66377
190
root 9.40525 16.8476 7.13176 9.16892 6.68037 5.79693
lowerback -3.95915 -3.8852 -8.10996
upperback 0.0823662 -4.84915 1.76746
thorax 3.13812 -2.56189 6.03667
lowerneck -23.7393 -3.33732 -10.4936
upperneck 22.4827 -3.77387 10.6114
head 11.701 -1.24374 5.11247
rclavicle 2.00773e-014 -1.11319e-014
rhumerus -52.578 6.10203 -80.6159
rradius 27.9095
rwrist -15.3666
rhand -33.0881 -18.4625
rfingers 7.12502
rthumb -6.29924 -48.3488
lclavicle 2.00773e-014 -1.11319e-014
lhumerus -14.498 -28.2963 87.1077
lradius 41.2941
lwrist 13.3268
lhand -16.0539 -27.2539
lfingers 7.12502
lthumb 10.1482 2.48135
rfemur -44.1372 6.44872 10.6061
rtibia 30.2435
rfoot -22.3476 -9.1825
rtoes -19.0147
lfemur 9.10108 1.43465 -30.4364
ltibia -9.54166e-015
lfoot -12.2785 -2.93841
ltoes 5.66575
191
root 9.41398 16.8118 7.35185 9.4477 6.80835 6.37441
lowerback -4.12318 -4.07184 -8.69577
upperback 0.0144675 -5.05468 1.66871
thorax 3.23676 -2.67393 6.23276
lowerneck -23.5785 -3.1731 -10.3686
upperneck 22.3787 -3.56274 10.493
head 11.5978 -1.15589 5.0745
rclavicle -3.40916e-014 -3.73715e-014
rhumerus -52.9452 5.55123 -79.7309
rradius 27.4855
rwrist -14.5862
rhand -32.9686 -21.7788
rfingers 7.12502
rthumb -6.1839 -51.6685
lclavicle -3.40916e-014 -3.73715e-014
lhumerus -13.5569 -27.5641 86.5717
lradius 41.4104
lwrist 13.1304
lhand -16.5595 -27.8678
lfingers 7.12502
lthumb 9.66033 1.89072
rfemur -45.3155 8.54087 8.23623
rtibia 29.2401
rfoot -23.3529 -9.94733
rtoes -17.8699
lfemur 9.72806 1.54123 -30.978
ltibia -6.36111e-015
lfoot -12.6497 -2.87025
ltoes 1.83844
192
root 9.41433 16.7913 7.57578 9.55267 7.01334 6.53042
lowerback -4.17649 -4.23795 -8.9136
upperback 0.00234873 -5.26011 1.6383
thorax 3.3074 -2.78192 6.29828
lowerneck -23.3213 -2.95895 -10.15
upperneck 22.0434 -3.33174 10.4566
head 11.3876 -1.04105 5.04476
rclavicle -8.37877e-014 -9.54166e-015
rhumerus -53.4239 5.33706 -79.3516
rradius 27.0727
rwrist -14.5778
rhand -33.5741 -21.432
rfingers 7.12502
rthumb -6.76845 -51.3038
lclavicle -8.37877e-014 -9.54166e-015
lhumerus -12.6529 -26.9181 86.0382
lradius 41.4668
lwrist 12.9545
lhand -17.973 -28.4255
lfingers 7.12502
lthumb 8.29635 1.39162
rfemur -46.2515 11.1109 6.08765
rtibia 28.4231
rfoot -24.4177 -11.6004
rtoes -16.4139
lfemur 10.5036 1.6491 -30.9375
ltibia -4.77083e-014
lfoot -12.8399 -3.02024
ltoes -2.01412
